<?xml version="1.0" encoding="UTF-8"?>
<svg width="2107.4" height="901.54" enable-background="new" version="1.1" viewBox="0 0 2107.4 901.54" xmlns="http://www.w3.org/2000/svg" xmlns:cc="http://creativecommons.org/ns#" xmlns:dc="http://purl.org/dc/elements/1.1/" xmlns:osb="http://www.openswatchbook.org/uri/2009/osb" xmlns:rdf="http://www.w3.org/1999/02/22-rdf-syntax-ns#" xmlns:xlink="http://www.w3.org/1999/xlink">
 <metadata>
  <rdf:RDF>
   <cc:Work rdf:about="">
    <dc:format>image/svg+xml</dc:format>
    <dc:type rdf:resource="http://purl.org/dc/dcmitype/StillImage"/>
    <dc:title/>
   </cc:Work>
  </rdf:RDF>
 </metadata>
 <defs>
  <linearGradient id="linearGradient7262" gradientTransform="matrix(.95965 0 0 1.0262 105.56 3.1994)" osb:paint="solid">
   <stop stop-color="#f7f7e7" offset="0"/>
  </linearGradient>
  <filter id="filter1079" color-interpolation-filters="sRGB">
   <feBlend in2="BackgroundImage" mode="multiply"/>
  </filter>
 </defs>
 <g transform="rotate(.43216 -1985.5 5372.6)">
  <g>
   <path d="m1174.7 279.56c-20.392 17.83-34.136 42.002-45.391 66.331-4.7795 11.537-10.174 23.268-11.77 35.713 1.6763 10.506 6.897 20.123 9.2558 30.509 7.7475 25.935 11.316 52.941 14.604 79.789 2.5386 5.2445 8.1943-0.75021 10.922-3.0786 45.469-39.568 64.695-106.46 47.031-164.14-4.9402-15.69-10.722-31.821-21.207-44.693-1.0098-0.8478-2.2182-0.97823-3.4447-0.43106z" fill="#afe14a" style="paint-order:normal"/>
   <path transform="rotate(-.43216 -1985.5 5372.6)" d="m982.41 270.3c-3.1843 1.2915-5.326 4.52-7.9775 6.6562-11.026 10.462-21.392 21.817-28.843 35.16-19.823 34.216-26.839 75.885-17.988 114.55 8.3945 39.646 33.69 74.657 66.847 97.497 23.215 15.569 50.633 24.813 78.513 26.628 13.523-0.0448 27.25 0.68444 40.477-2.7265 4.9042-1.2738 10.201-1.7136 14.768-3.9691 2.1386-3.3008 0.8478-7.6758 1.294-11.388-0.018-19.429-0.5564-38.985-4.6575-58.05-8.4242-41.311-24.657-81.041-47.391-116.54-17.87-27.394-40.005-52.337-66.571-71.565-8.7251-5.9578-17.627-11.897-27.347-16.098-0.36457-0.10129-0.74303-0.17311-1.123-0.15625zm5.0068 28.49c10.745-0.0122 20.209 9.2858 21.199 19.877 1.2281 10.481-3.6616 21.187-11.946 27.647-5.9166 5.4776-14.248 9.0047-22.315 7.1591-11.5-2.7602-18.483-15.74-16.306-26.989 1.4767-12.751 11.808-23.349 23.835-26.956 1.806-0.47985 3.6728-0.74078 5.5322-0.73731zm-30.558 51.756c2.9758-0.33532 5.7698 1.3615 6.6973 4.2178 2.8683 6.1479-1.0944 13.19-6.0195 16.961-3.8833 2.9719-10.168 3.3799-13.175-1.04-4.0305-5.0152-1.428-12.091 2.6963-16.212 2.5063-2.8234 6.0782-4.1573 9.8008-3.9268z" fill="#9fcc33" style="paint-order:normal"/>
   <path transform="rotate(-.43216 -1985.5 5372.6)" d="m1132.9 241.91c-4.4277 3.638-8.156 8.1465-11.981 12.422-9.9355 12.096-18.205 25.549-24.832 39.718-0.5475 1.6365-2.059 3.6985-0.454 5.2228 9.4106 13.295 19.389 26.207 28.041 40.028 3.5403 5.2542 6.362 11.028 10.372 15.946 1.1427 1.5366 2.0118-0.98775 2.5657-1.7509 7.2519-13.443 14.26-27.071 23.011-39.63 8.0518-11.986 17.541-22.899 27.291-33.514 0.9562-1.5176 3.3793-3.1945 2.4851-5.2208-3.4578-4.6653-8.6228-7.7115-13.23-11.121-13.355-8.8638-27.265-17.448-42.747-22.031-0.1717-0.0328-0.3463-0.0815-0.5227-0.0691z" fill="#98be2b" style="paint-order:normal"/>
   <path transform="rotate(-.43216 -1985.5 5372.6)" d="m1074.5 233.79c-12.28 0.61101-24.478 2.8962-36.269 6.3405-1.2808 0.44889-4.0298 1.2668-3.0246 3.1178 4.369 4.3399 9.715 7.6183 14.428 11.586 3.9565 2.9035 7.5944 6.4862 12.062 8.5607 2.2586-1.904 3.4587-4.8964 5.2138-7.2632 4.0937-6.7509 8.7392-13.206 12.32-20.249 0.7481-1.1522-0.4205-2.093-1.5613-1.9618-1.0496-0.13798-2.112-0.14339-3.1688-0.1312z" fill="#6d8f04" style="paint-order:normal"/>
  </g>
  <g display="none">
   <path d="m1174.7 279.56c-20.392 17.83-34.136 42.002-45.391 66.331-4.7795 11.537-10.174 23.268-11.77 35.713 1.6763 10.506 6.897 20.123 9.2558 30.509 7.7475 25.935 11.316 52.941 14.604 79.789 2.5386 5.2445 8.1943-0.75021 10.922-3.0786 45.469-39.568 64.695-106.46 47.031-164.14-4.9402-15.69-10.722-31.821-21.207-44.693-1.0098-0.8478-2.2182-0.97823-3.4447-0.43106z" display="inline" fill="#7f0" style="paint-order:normal"/>
   <path transform="rotate(-.43216 -1985.5 5372.6)" d="m982.41 270.3c-3.1843 1.2915-5.326 4.52-7.9775 6.6562-11.026 10.462-21.392 21.817-28.843 35.16-19.823 34.216-26.839 75.885-17.988 114.55 8.3945 39.646 33.69 74.657 66.847 97.497 23.215 15.569 50.633 24.813 78.513 26.628 13.523-0.0448 27.25 0.68444 40.477-2.7265 4.9042-1.2738 10.201-1.7136 14.768-3.9691 2.1386-3.3008 0.8478-7.6758 1.294-11.388-0.018-19.429-0.5564-38.985-4.6575-58.05-8.4242-41.311-24.657-81.041-47.391-116.54-17.87-27.394-40.005-52.337-66.571-71.565-8.7251-5.9578-17.627-11.897-27.347-16.098-0.36457-0.10129-0.74303-0.17311-1.123-0.15625zm5.0068 28.49c10.745-0.0122 20.209 9.2858 21.199 19.877 1.2281 10.481-3.6616 21.187-11.946 27.647-5.9166 5.4776-14.248 9.0047-22.315 7.1591-11.5-2.7602-18.483-15.74-16.306-26.989 1.4767-12.751 11.808-23.349 23.835-26.956 1.806-0.47985 3.6728-0.74078 5.5322-0.73731zm-30.558 51.756c2.9758-0.33532 5.7698 1.3615 6.6973 4.2178 2.8683 6.1479-1.0944 13.19-6.0195 16.961-3.8833 2.9719-10.168 3.3799-13.175-1.04-4.0305-5.0152-1.428-12.091 2.6963-16.212 2.5063-2.8234 6.0782-4.1573 9.8008-3.9268z" display="inline" fill="#3b31a0" style="paint-order:normal"/>
   <path transform="rotate(-.43216 -1985.5 5372.6)" d="m1132.9 241.91c-4.4277 3.638-8.156 8.1465-11.981 12.422-9.9355 12.096-18.205 25.549-24.832 39.718-0.5475 1.6365-2.059 3.6985-0.454 5.2228 9.4106 13.295 19.389 26.207 28.041 40.028 3.5403 5.2542 6.362 11.028 10.372 15.946 1.1427 1.5366 2.0118-0.98775 2.5657-1.7509 7.2519-13.443 14.26-27.071 23.011-39.63 8.0518-11.986 17.541-22.899 27.291-33.514 0.9562-1.5176 3.3793-3.1945 2.4851-5.2208-3.4578-4.6653-8.6228-7.7115-13.23-11.121-13.355-8.8638-27.265-17.448-42.747-22.031-0.1717-0.0328-0.3463-0.0815-0.5227-0.0691z" display="inline" fill="#ff0052" style="paint-order:normal"/>
   <path transform="rotate(-.43216 -1985.5 5372.6)" d="m1074.5 233.79c-12.28 0.61101-24.478 2.8962-36.269 6.3405-1.2808 0.44889-4.0298 1.2668-3.0246 3.1178 4.369 4.3399 9.715 7.6183 14.428 11.586 3.9565 2.9035 7.5944 6.4862 12.062 8.5607 2.2586-1.904 3.4587-4.8964 5.2138-7.2632 4.0937-6.7509 8.7392-13.206 12.32-20.249 0.7481-1.1522-0.4205-2.093-1.5613-1.9618-1.0496-0.13798-2.112-0.14339-3.1688-0.1312z" display="inline" fill="#ffd800" style="paint-order:normal"/>
  </g>
  <path d="m1176.1 279.89s22.204 7.614 29.72 41.65c20.356 92.189-27.03 202.99-153.98 210.47-113.47 6.6881-134.18-67.126-134.18-67.126 40.228 59.166 318.46-34.911 258.44-184.99z" fill="#d8e9b3" filter="url(#filter1079)" style="mix-blend-mode:multiply"/>
  <path d="m1176.1 279.89s22.204 7.614 29.72 41.65c20.356 92.189-27.03 202.99-153.98 210.47-113.47 6.6881-134.18-67.126-134.18-67.126 40.228 59.166 318.46-34.911 258.44-184.99z" display="none" fill="#d8e9b3" filter="url(#filter1079)"/>
  <path d="m368.26 850.51c-11.428-5.1385-20.588-16.282-25.792-31.375l-3.3223-9.6365 8e-3 -289c9e-3 -320.03-0.50435-295.96 6.6268-310.5 4.3722-8.9131 14.308-19.412 21.743-22.974 6.7822-3.2496 14.844-3.1217 21.936 0.34784 7.0585 3.4534 15.821 12.486 20.203 20.825 1.9656 3.7406 4.1991 6.8011 4.9633 6.8011s5.1271-1.5018 9.6955-3.3373c28.116-11.296 67.481-17.437 94.388-14.724 16.312 1.6451 24.477 3.4348 34.975 7.667 42.97 17.322 65.298 65.656 57.908 125.35-2.9718 24.004-8.4907 43.988-18.809 68.104-10.79 25.221-26.327 46.843-52.063 72.46-41.182 40.99-83.201 66.504-115.48 70.121-3.0863 0.34581-6.2111 1.1033-6.9439 1.6833-1.0998 0.87042-1.2964 24.286-1.1265 134.11l0.20586 133.06-2.2212 7c-1.2216 3.85-3.5858 9.5797-5.2536 12.733-3.8012 7.1861-13.3 16.871-19.528 19.91-5.983 2.9192-17.129 3.6096-22.111 1.3695zm57.911-391.03c21.12-7.4515 66.995-46.714 83.363-71.347 10.675-16.065 15.971-28.045 21.281-48.138 6.1744-23.364 5.7132-49.09-1.0626-59.269-3.627-5.4487-8.4554-7.0908-22.213-7.5545-18.612-0.62729-36.191 2.4392-56.863 9.9194-8.9717 3.2463-30.229 14.837-32.298 17.61-0.97541 1.3076-1.25 19.098-1.25 80.985v79.309h2.3743c1.3058 0 4.3069-0.68188 6.6691-1.5153zm230.84 129.19c-11.598-4.3138-20.908-15.226-26.169-30.672l-2.2137-6.5-0.28967-160.5c-0.20362-112.82 0.0351-162.4 0.80373-166.89 2.9702-17.359 16.445-34.211 29.78-37.244 7.3749-1.677 14.218 0.54213 21.308 6.9102 9.6463 8.6644 15.68 20.621 17.415 34.509 0.39268 3.1429 1.2092 5.7143 1.8144 5.7143 0.60524 0 3.1409-1.9838 5.6348-4.4085 5.8455-5.6833 18.933-14.999 26.312-18.728 9.4171-4.7595 22.539-8.648 33.37-9.8885 8.5434-0.9785 11.908-0.90412 21.281 0.47049 17.506 2.5673 31.427 8.007 46.849 18.307 14.761 9.8579 21.598 19.387 23.497 32.748 1.2162 8.555-0.0455 14.03-4.3674 18.952-3.7013 4.2155-8.3427 5.831-16.866 5.87-9.2907 0.0426-17.189-2.6168-27.542-9.2744-11.128-7.1553-15.49-9.3794-22.432-11.437-10.811-3.2053-21.933-1.5647-32.844 4.8452-7.5883 4.4578-19.607 16.981-26.6 27.716-7.437 11.417-19.604 36.655-24.064 49.917l-3.561 10.588v98.613c0 66.924-0.34841 100.32-1.0842 103.91-0.59632 2.9146-3.0531 9.4036-5.4595 14.42-3.317 6.9148-5.6423 10.26-9.6136 13.831-9.1309 8.2094-17.542 10.98-24.96 8.2207zm-513.83-9.7393c-27.785-2.6023-51.337-10.528-72.804-24.501-38.377-24.979-61.343-61.851-68.297-109.65-2.9298-20.14 3.7472-41.286 17.248-54.624 14.924-14.744 30.874-14.339 47.553 1.2078 12.584 11.73 17.467 21.678 23.626 48.133 3.6148 15.527 7.9921 23.697 17.544 32.747 13.977 13.242 28.418 18.753 49.133 18.753 23.158 0 40.269-6.5338 55.485-21.187 15.468-14.896 26.302-35.725 27.211-52.313 0.88459-16.151-7.9804-35.017-23.046-49.047-15.993-14.894-32.551-24.413-71.838-41.301-30.453-13.091-40.244-18.444-58.854-32.184-11.73-8.6599-26.017-22.905-33.37-33.272-16.729-23.588-22.582-52.798-16.57-82.696 1.743-8.6675 10.426-29.783 15.844-38.527 22.91-36.98 61.108-60.872 106.08-66.35 18.009-2.1939 24.492-2.3111 39-0.70486 16.505 1.8273 26.866 4.0984 38.805 8.5064 41.349 15.266 62.006 37.722 62.478 67.919 0.25973 16.615-6.5256 27.047-20.316 31.236-6.2626 1.9022-8.6075 2.1143-17.172 1.553-13.04-0.85455-22.84-4.1551-37.693-12.695-16.503-9.4882-22.174-11.134-40.304-11.696-13.672-0.42427-15.355-0.27004-24 2.1997-5.1132 1.4608-12.276 4.4196-15.917 6.5751-15.721 9.3073-26.745 28.774-22.898 40.431 1.8552 5.6214 12.116 15.874 22.012 21.996 12.457 7.7059 23.891 13.265 50.826 24.711 36.192 15.38 47.623 21.838 70.855 40.03 31.569 24.72 53.448 58.45 60.854 93.816 5.2009 24.834 3.4067 50.519-5.1692 74-8.6727 23.746-23.701 48.334-40.838 66.813-7.155 7.7156-22.43 20.118-32.529 26.411-9.2078 5.7382-27.921 13.861-39.701 17.232-19.476 5.5744-44.979 8.1863-63.236 6.4764zm885.94-1.5441c-15.17-1.863-26.973-3.9325-36.626-6.4213-82.624-21.304-143.41-91.153-154.43-177.47-1.6589-12.987-1.4623-37.055 0.41719-51.086 6.8688-51.277 33.052-99.415 71.556-131.56 37.73-31.496 80.45-47.964 128.58-49.566 52.434-1.7456 102.82 16.23 143 51.02 31.105 26.93 54.47 64.341 65.08 104.21 8.1768 30.721 8.509 69.304 0.8812 102.34-4.1841 18.119-15.912 45.596-26.548 62.2-32.424 50.618-85.658 85.214-145.41 94.502-9.7622 1.5175-39.522 2.6915-46.5 1.8345zm35.026-50.443c8.3042-1.0327 26.579-5.2177 27.706-6.3449 2.3228-2.3228 0.8204-41.241-2.2815-59.101-9.8188-56.534-36.787-114.53-72.534-156-14.347-16.642-31.749-32.607-46.057-42.253-9.692-6.5343-25.082-15.247-26.931-15.247-2.3968 0-21.468 19.788-28.432 29.5-20.285 28.292-30.979 65.07-29.076 100 2.1609 39.669 18.131 75.284 46.463 103.62 22.165 22.165 46.462 35.615 77.616 42.965 16.222 3.8271 36.895 4.9339 53.526 2.8656zm-154.63-175.42c-3.0932-1.3006-5.4112-5.1056-5.3742-8.8216 0.0708-7.0994 7.1191-14.692 13.646-14.699 4.537-5e-3 6.2096 0.85933 7.8688 4.0678 1.9322 3.7364 1.8168 6.5525-0.47516 11.601-2.9924 6.5907-10.143 10.175-15.666 7.8525zm23.842-20.86c-5.0919-1.8466-10.905-8.1464-12.81-13.883-2.0205-6.0833-1.4192-14.752 1.4778-21.301 4.1411-9.3616 14.913-17.809 24.361-19.104 9.8892-1.3555 19.958 5.0676 23.076 14.72 2.2084 6.838 2.0898 11.231-0.51177 18.959-1.7369 5.1593-3.3818 7.6561-8.25 12.523-8.6018 8.5992-18.146 11.422-27.343 8.0862zm224.17 150.09c12.07-12.152 17.436-19.176 25.489-33.364 15.635-27.545 22.724-59.766 20.088-91.304-2.0007-23.937-11.033-51.371-23.156-70.332-1.6703-2.6125-3.3911-4.75-3.8239-4.75s-4.4557 3.8758-8.9398 8.613c-18.469 19.511-39.206 57.987-46.571 86.411l-1.4814 5.717 4.4742 13.002c5.7206 16.624 11.854 40.335 14.512 56.103 1.6377 9.7142 4.9332 36.394 4.9904 40.403 0.038 2.6822 4.6906-0.70567 14.419-10.5zm-52.722-162.75c10.929-21.642 24.495-40.998 41.683-59.477 2.5468-2.738 4.6306-5.5154 4.6306-6.1721 0-4.7665-36.036-27.183-51.392-31.968l-5.892-1.8362-6.8782 7.3427c-3.783 4.0385-9.9234 11.903-13.645 17.477-8.3493 12.504-17.552 30.221-16.569 31.898 0.3986 0.68016 4.1666 5.7366 8.3734 11.237 9.8319 12.854 19.342 26.693 25.991 37.821 2.8988 4.8515 5.6327 8.4515 6.0754 8 0.4426-0.45148 3.873-6.8964 7.6229-14.322zm-75.277-87.285c3.0156-5.0676 6.8328-11.209 8.4826-13.647 1.6498-2.4384 2.7338-4.8637 2.4089-5.3894-0.9661-1.5632-17.712 0.0983-29.741 2.9508-16.439 3.8984-17.122 4.5083-10.309 9.2072 2.3375 1.6121 8.2527 6.12 13.145 10.017 4.8922 3.8975 9.263 6.8588 9.7129 6.5808 0.4498-0.27803 3.2853-4.6518 6.301-9.7194zm596.96 338.74c-15.038-3.3001-31.252-12.121-41.178-22.402-20.025-20.741-28.042-48.09-32.141-109.64-1.8379-27.604-3.2249-139.35-2.2641-182.41 0.5305-23.775 0.5349-40.913 0.011-41.5-0.5262-0.58906-11.25-1.2141-26.096-1.521-24.582-0.50819-25.341-0.5857-30.858-3.1514-6.6647-3.0998-12.811-9.0935-16.033-15.635-3.1767-6.4493-3.2783-19.568-0.2028-26.193 2.8991-6.2448 9.5309-12.709 16.236-15.826 5.5498-2.58 6.1541-2.6389 32.357-3.1514 15.772-0.30846 27.095-0.93153 27.663-1.5222 0.5289-0.55 2.151-12.7 3.6046-27 4.5775-45.031 10.028-84.791 12.698-92.624 7.4033-21.724 35.553-29.038 52.421-13.621 11.128 10.171 12.869 19.427 9.4467 50.245-1.7322 15.601-4.3961 43.331-7.4155 77.192-0.2928 3.2838-0.032 5.5476 0.7088 6.1588 0.667 0.55 13.45 1.1372 29.672 1.3629 26.595 0.37006 28.878 0.5455 34.147 2.6246 7.2176 2.8476 14.214 9.0131 17.631 15.538 3.6823 7.0308 3.818 18.558 0.3108 26.403-2.9732 6.65-10.313 13.37-17.887 16.376-5.3635 2.1292-7.5392 2.2954-36.691 2.8038l-30.989 0.54036-0.8626 5c-1.378 7.987-1.2187 135.81 0.2012 161.5 2.6485 47.922 9.9793 90.998 18.244 107.2 2.4939 4.8902 6.1603 5.6003 14.895 2.8849 14.229-4.4234 33.687-21.039 56.757-48.465 14.018-16.666 15.167-17.83 20.243-20.531 12.989-6.9087 30.945-4.2009 41.387 6.2416 7.0274 7.0274 9.884 13.536 10.402 23.701 0.4095 8.0364 0.2213 9.0519-3.2158 17.355-9.421 22.759-18.597 35.813-40.497 57.617-26.262 26.147-47.137 38.706-73.143 44.005-11.433 2.3299-30.011 2.5368-39.563 0.44061zm-244.87-0.96061c-14.75-2.7942-30.127-9.4231-42.465-18.307-38.075-27.414-64.328-77.525-73.181-139.69-2.9167-20.48-3.6113-58.353-1.4212-77.5 3.643-31.848 12.852-66.045 20.804-77.257 10.079-14.209 24.388-22.708 38.263-22.726 10.592-0.0133 17.587 4.2146 22.791 13.775 6.1732 11.342 7.3727 30.63 2.7182 43.707-3.0361 8.5301-8.5098 30.251-10.584 42-2.4823 14.059-2.5164 54.669-0.058 68.994 6.337 36.923 19.484 66.732 36.464 82.679 9.4256 8.8522 14.706 11.327 24.169 11.327 6.0153 0 8.4785-0.49491 12.443-2.5 6.7996-3.4392 15.852-12.045 21.546-20.483 20.727-30.717 30.956-74.823 28.046-120.94-1.452-23.012-3.7175-34.505-11.609-58.892-5.1886-16.035-6.0846-22.437-4.5363-32.413 3.1492-20.292 12.845-30.869 28.114-30.669 14.997 0.19667 32.319 11.934 40.402 27.375 7.3494 14.04 14.962 40.808 18.632 65.521 2.7195 18.309 3.7042 52.558 2.0171 70.156-3.4554 36.042-9.3317 59.428-22.604 89.961-17.307 39.812-48.306 71.256-81.116 82.276-14.164 4.7579-34.723 6.2735-48.835 3.6003zm508.5-1.1884c-25.958-2.7799-49.059-13.204-67.506-30.46-17.085-15.982-28.66-38.641-33.001-64.599-1.5514-9.2781-1.5659-10.808-0.167-17.668 2.3547-11.547 6.0559-18.791 12.784-25.019 6.8659-6.3565 11.144-8.0193 18.643-7.2454 6.2161 0.64156 10.543 3.139 17.253 9.9587 7.4909 7.6129 10.616 13.898 14.422 29.011 4.0181 15.954 6.9257 21.869 14.07 28.626 9.6518 9.1283 20.822 13.308 35.563 13.308 11.199 0 22.555-2.7063 30.55-7.2806 12.605-7.212 26.777-27.454 29.476-42.103 2.2882-12.419-2.7689-25.58-14.478-37.679-11.447-11.828-24.642-19.764-52.608-31.641-18.796-7.982-30.989-14.438-41.5-21.974-37.907-27.178-50.046-61.83-35.144-100.33 12.638-32.649 42.43-55.931 79.763-62.334 42.868-7.3526 89.549 9.1908 102.9 36.467 2.7495 5.6176 3.4268 8.3082 3.7755 15 0.8573 16.454-4.2493 24.086-17.842 26.664-9.2694 1.7579-26.807-2.2516-34.95-7.9903-15.916-11.217-38.996-13.23-56.597-4.9361-8.0177 3.778-13.685 9.08-17.389 16.269-9.4453 18.332 0.3935 27.703 52.665 50.163 21.724 9.3343 28.587 12.959 39.903 21.074 33.983 24.371 51.496 51.798 55.469 86.87 4.2641 37.641-19.729 84.453-55.574 108.43-8.3164 5.5623-25.322 13.187-34.508 15.472-15.299 3.806-33.052 5.3302-45.971 3.9468z" fill="url(#linearGradient7262)" stroke="url(#linearGradient7262)" stroke-linecap="round" stroke-linejoin="round" stroke-width="3.0236" style="paint-order:normal"/>
 </g>
 <rect y="585.48" width="2107.4" height="316.06" display="none" fill="url(#linearGradient7262)" style="paint-order:normal"/>
</svg>
